<svg width="179" height="179" viewBox="0 0 179 179" fill="none" xmlns="http://www.w3.org/2000/svg">
<rect width="179" height="179" rx="17" fill="white"/>
<path d="M89.5 100.5L86 103V51.5L70.5 57.5V28L112.5 9V83L111 86.5L109.5 89L106.5 91.5L101 94L96 96.5L92 99L89.5 100.5Z" fill="#D9EBF6"/>
<path d="M33 125.5V76.5128L66 64L65.5 111.5L33 125.5Z" fill="#D9EBF6"/>
<path d="M31 125.5V76L83.5 55V104L68 111V26.5L115 5M115 5L147 18.5V86M115 5V93.5" stroke="#2E4F97" stroke-width="5"/>
<path d="M17.946 168V137.288H27.362C34.9593 137.288 38.758 139.913 38.758 145.164C38.758 146.953 38.2153 148.464 37.13 149.696C36.0447 150.928 34.4607 151.764 32.378 152.204V152.292C34.6367 152.585 36.3967 153.377 37.658 154.668C38.9193 155.929 39.55 157.572 39.55 159.596C39.55 161.62 38.9487 163.292 37.746 164.612C36.5433 165.903 35.0767 166.797 33.346 167.296C31.6447 167.765 29.694 168 27.494 168H17.946ZM23.93 141.864V150.224H25.558C27.9047 150.224 29.6793 149.931 30.882 149.344C32.0847 148.757 32.686 147.643 32.686 146C32.686 144.445 32.0993 143.375 30.926 142.788C29.782 142.172 28.198 141.864 26.174 141.864H23.93ZM23.93 154.536V163.38H25.954C28.506 163.38 30.3687 163.028 31.542 162.324C32.7447 161.62 33.346 160.476 33.346 158.892C33.346 157.337 32.73 156.223 31.498 155.548C30.266 154.873 28.3153 154.536 25.646 154.536H23.93ZM61.109 137.288L73.341 168H66.609L63.925 160.916H51.121L48.437 168H42.057L54.113 137.288H61.109ZM62.253 156.252L59.701 149.08C58.8796 146.763 58.1756 144.445 57.589 142.128H57.501C56.9436 144.123 56.1956 146.44 55.257 149.08L52.705 156.252H62.253ZM77.4577 168V137.288H95.6297V142.392H83.5737V149.784H94.6617V154.756H83.5737V162.852H95.7617V168H77.4577ZM102.122 137.288H110.526C113.224 137.288 115.63 137.567 117.742 138.124C119.883 138.681 121.79 139.561 123.462 140.764C125.134 141.937 126.41 143.551 127.29 145.604C128.199 147.628 128.654 150.019 128.654 152.776C128.654 157.88 126.982 161.693 123.638 164.216C120.323 166.739 115.952 168 110.526 168H102.122V137.288ZM108.326 142.128V163.292H109.954C113.679 163.292 116.656 162.456 118.886 160.784C121.115 159.112 122.23 156.428 122.23 152.732C122.23 145.663 118.138 142.128 109.954 142.128H108.326ZM150.097 137.288L162.329 168H155.597L152.913 160.916H140.109L137.425 168H131.045L143.101 137.288H150.097ZM151.241 156.252L148.689 149.08C147.868 146.763 147.164 144.445 146.577 142.128H146.489C145.932 144.123 145.184 146.44 144.245 149.08L141.693 156.252H151.241Z" fill="#2E4F97"/>
<path d="M116.622 125.792C116.375 126.101 116.059 126.355 115.676 126.553C115.292 126.738 114.952 126.831 114.655 126.831C114.482 126.831 114.266 126.837 114.006 126.85C113.746 126.85 113.474 126.856 113.189 126.868C112.917 126.868 112.651 126.874 112.392 126.887C112.132 126.887 111.915 126.887 111.742 126.887C110.951 126.887 110.122 126.955 109.256 127.091C108.402 127.215 107.549 127.382 106.695 127.592C105.842 127.79 104.994 128 104.153 128.223C103.325 128.458 102.539 128.674 101.797 128.872C101.055 129.082 100.362 129.249 99.7188 129.373C99.0879 129.509 98.5436 129.577 98.0859 129.577C97.3438 129.577 96.7624 129.404 96.3418 129.058C95.9336 128.724 95.7171 128.322 95.6924 127.852C95.6676 127.555 95.6676 127.202 95.6924 126.794C95.7171 126.386 95.7666 125.94 95.8408 125.458C95.915 124.976 96.0016 124.468 96.1006 123.937C96.1995 123.392 96.3109 122.842 96.4346 122.285C96.5088 121.914 96.6016 121.432 96.7129 120.838C96.8366 120.244 96.9541 119.626 97.0654 118.982C97.1768 118.327 97.2819 117.696 97.3809 117.09C97.4798 116.471 97.5602 115.964 97.6221 115.568C97.7581 114.665 97.8818 113.855 97.9932 113.138C98.1169 112.408 98.2282 111.709 98.3271 111.041C98.4385 110.373 98.5436 109.699 98.6426 109.019C98.7415 108.326 98.8343 107.553 98.9209 106.699C98.9951 105.771 99.0446 104.943 99.0693 104.213C99.1064 103.483 99.1868 102.871 99.3105 102.376C99.4466 101.869 99.6569 101.485 99.9414 101.226C100.238 100.953 100.69 100.817 101.296 100.817C101.642 100.817 101.927 100.885 102.149 101.021C102.384 101.158 102.576 101.337 102.725 101.56C102.873 101.782 102.984 102.036 103.059 102.32C103.133 102.605 103.182 102.889 103.207 103.174C103.219 103.26 103.176 103.539 103.077 104.009C102.991 104.479 102.873 105.066 102.725 105.771C102.576 106.464 102.409 107.237 102.224 108.091C102.038 108.944 101.853 109.81 101.667 110.688C101.494 111.567 101.327 112.42 101.166 113.249C101.018 114.065 100.9 114.783 100.813 115.401C100.739 115.946 100.646 116.533 100.535 117.164C100.436 117.783 100.331 118.413 100.22 119.057C100.108 119.688 99.9971 120.318 99.8857 120.949C99.7744 121.58 99.6755 122.174 99.5889 122.73C99.5023 123.275 99.4342 123.77 99.3848 124.215C99.3477 124.648 99.3415 124.994 99.3662 125.254C99.391 125.477 99.4837 125.681 99.6445 125.866C99.8053 126.052 100.022 126.145 100.294 126.145C100.591 126.145 100.962 126.107 101.407 126.033C101.865 125.947 102.347 125.841 102.854 125.718C103.374 125.582 103.9 125.439 104.432 125.291C104.964 125.13 105.471 124.982 105.953 124.846C106.064 124.809 106.275 124.759 106.584 124.697C106.906 124.623 107.271 124.543 107.679 124.456C108.099 124.369 108.545 124.283 109.015 124.196C109.485 124.11 109.924 124.029 110.332 123.955C110.753 123.881 111.124 123.819 111.445 123.77C111.767 123.72 111.99 123.695 112.113 123.695C112.274 123.695 112.497 123.677 112.781 123.64C113.078 123.603 113.412 123.572 113.783 123.547C114.154 123.522 114.556 123.51 114.989 123.51C115.422 123.51 115.855 123.553 116.288 123.64C116.511 123.689 116.678 123.8 116.789 123.974C116.9 124.134 116.962 124.326 116.975 124.549C116.987 124.771 116.962 124.994 116.9 125.217C116.839 125.439 116.746 125.631 116.622 125.792ZM130.816 113.397C130.816 113.274 130.767 113.138 130.668 112.989C130.581 112.828 130.464 112.68 130.315 112.544C130.179 112.396 130.025 112.272 129.852 112.173C129.678 112.074 129.518 112.024 129.369 112.024C128.986 112.024 128.627 112.086 128.293 112.21C127.971 112.334 127.668 112.494 127.384 112.692C127.099 112.878 126.833 113.094 126.586 113.342C126.351 113.589 126.141 113.837 125.955 114.084C125.51 114.653 125.052 115.352 124.582 116.181C124.124 116.997 123.704 117.857 123.32 118.76C122.949 119.663 122.64 120.553 122.393 121.432C122.158 122.31 122.04 123.089 122.04 123.77C122.04 124.116 122.195 124.413 122.504 124.66C122.813 124.908 123.228 125.031 123.747 125.031C124.044 125.031 124.396 124.901 124.805 124.642C125.225 124.369 125.658 124.017 126.104 123.584C126.561 123.139 127.007 122.638 127.439 122.081C127.885 121.524 128.274 120.949 128.608 120.355C129.239 119.242 129.765 118.123 130.186 116.997C130.606 115.859 130.816 114.659 130.816 113.397ZM145.901 112.544C145.901 112.655 145.809 112.965 145.623 113.472C145.45 113.979 145.19 114.597 144.844 115.327C144.51 116.045 144.095 116.836 143.601 117.702C143.118 118.568 142.574 119.409 141.968 120.226C141.226 121.24 140.49 122.124 139.76 122.879C139.03 123.633 138.331 124.264 137.663 124.771C137.007 125.266 136.401 125.644 135.845 125.903C135.288 126.151 134.806 126.274 134.397 126.274C133.717 126.274 133.167 126.182 132.746 125.996C132.326 125.798 131.979 125.507 131.707 125.124C131.435 124.728 131.212 124.233 131.039 123.64C130.878 123.034 130.717 122.322 130.557 121.506H130.297C129.777 122.298 129.208 123.083 128.59 123.862C127.984 124.629 127.347 125.322 126.679 125.94C126.023 126.547 125.343 127.041 124.638 127.425C123.945 127.808 123.258 128 122.578 128C122.219 128 121.842 127.938 121.446 127.814C121.05 127.678 120.686 127.468 120.352 127.184C120.018 126.899 119.739 126.54 119.517 126.107C119.294 125.662 119.183 125.13 119.183 124.512C119.183 123.967 119.251 123.349 119.387 122.656C119.523 121.951 119.708 121.221 119.943 120.467C120.178 119.7 120.444 118.933 120.741 118.166C121.05 117.387 121.372 116.651 121.706 115.958C122.052 115.265 122.399 114.641 122.745 114.084C123.091 113.515 123.425 113.063 123.747 112.729C124.118 112.334 124.551 111.932 125.046 111.523C125.553 111.115 126.11 110.744 126.716 110.41C127.322 110.076 127.971 109.804 128.664 109.594C129.357 109.371 130.087 109.26 130.854 109.26C131.472 109.26 131.936 109.464 132.245 109.872C132.554 110.268 132.771 110.874 132.895 111.69C132.907 111.765 132.95 111.851 133.024 111.95C133.111 112.049 133.198 112.16 133.284 112.284C133.383 112.408 133.47 112.538 133.544 112.674C133.618 112.798 133.655 112.927 133.655 113.063C133.655 113.261 133.612 113.509 133.525 113.806C133.439 114.09 133.34 114.418 133.229 114.789C133.13 115.148 133.037 115.544 132.95 115.977C132.864 116.397 132.82 116.842 132.82 117.312C132.82 117.956 132.826 118.642 132.839 119.372C132.851 120.102 132.919 120.776 133.043 121.395C133.179 122.001 133.396 122.508 133.692 122.916C134.002 123.324 134.447 123.528 135.028 123.528C135.325 123.528 135.678 123.405 136.086 123.157C136.507 122.91 136.964 122.563 137.459 122.118C137.966 121.673 138.492 121.141 139.036 120.522C139.593 119.904 140.162 119.224 140.743 118.481C141.411 117.628 141.993 116.787 142.487 115.958C142.982 115.117 143.415 114.375 143.786 113.731C144.157 113.076 144.473 112.55 144.732 112.154C144.992 111.746 145.215 111.542 145.4 111.542H145.419C145.629 111.554 145.765 111.616 145.827 111.728C145.889 111.839 145.92 111.981 145.92 112.154C145.92 112.216 145.92 112.278 145.92 112.34C145.92 112.402 145.914 112.47 145.901 112.544ZM158.871 117.053C158.871 118.29 158.661 119.514 158.24 120.727C157.832 121.926 157.282 123.077 156.589 124.178C155.896 125.266 155.092 126.281 154.177 127.221C153.274 128.161 152.321 128.983 151.319 129.688C150.317 130.406 149.303 130.981 148.276 131.414C147.25 131.859 146.279 132.125 145.363 132.212C145.116 132.2 144.868 132.144 144.621 132.045C144.386 131.946 144.163 131.828 143.953 131.692C143.755 131.556 143.594 131.402 143.471 131.229C143.347 131.068 143.285 130.919 143.285 130.783C143.285 130.561 143.359 130.344 143.508 130.134C143.656 129.936 143.891 129.75 144.213 129.577C144.906 129.577 145.623 129.478 146.365 129.28C147.12 129.082 147.874 128.798 148.629 128.427C149.383 128.056 150.119 127.61 150.837 127.091C151.567 126.559 152.247 125.965 152.878 125.31C153.41 124.765 153.88 124.178 154.288 123.547C154.709 122.904 155.061 122.254 155.346 121.599C155.63 120.943 155.847 120.294 155.995 119.65C156.144 118.995 156.218 118.382 156.218 117.813C156.218 117.554 156.187 117.312 156.125 117.09C156.076 116.867 156.001 116.682 155.902 116.533C155.816 116.372 155.717 116.249 155.605 116.162C155.494 116.076 155.383 116.032 155.271 116.032C154.628 116.032 153.936 116.218 153.193 116.589C152.451 116.948 151.703 117.43 150.948 118.036C150.194 118.642 149.458 119.341 148.74 120.133C148.023 120.924 147.361 121.753 146.755 122.619C146.161 123.485 145.642 124.357 145.196 125.235C144.751 126.101 144.436 126.911 144.25 127.666C144.188 127.951 144.083 128.247 143.935 128.557C143.799 128.866 143.638 129.144 143.452 129.392C143.267 129.639 143.069 129.831 142.858 129.967C142.66 130.115 142.469 130.159 142.283 130.097C141.751 129.899 141.485 129.354 141.485 128.464C141.485 128.254 141.541 127.882 141.652 127.351C141.776 126.806 141.943 126.151 142.153 125.384C142.401 124.419 142.611 123.541 142.784 122.749C142.97 121.945 143.137 121.16 143.285 120.393C143.446 119.613 143.601 118.822 143.749 118.018C143.897 117.201 144.064 116.292 144.25 115.29C144.436 114.338 144.615 113.441 144.788 112.6C144.974 111.746 145.172 110.911 145.382 110.095C145.592 109.266 145.821 108.443 146.068 107.627C146.316 106.798 146.6 105.938 146.922 105.048C147.182 104.306 147.448 103.681 147.72 103.174C148.004 102.654 148.283 102.234 148.555 101.912C148.827 101.578 149.093 101.337 149.353 101.188C149.612 101.04 149.854 100.966 150.076 100.966C150.225 100.966 150.373 100.991 150.521 101.04C150.682 101.077 150.831 101.158 150.967 101.281C151.103 101.393 151.214 101.553 151.301 101.764C151.387 101.962 151.431 102.215 151.431 102.524C151.431 102.945 151.387 103.366 151.301 103.786C151.214 104.207 151.103 104.627 150.967 105.048C150.843 105.456 150.701 105.858 150.54 106.254C150.379 106.65 150.225 107.033 150.076 107.404C149.903 107.837 149.693 108.32 149.445 108.852C149.198 109.371 148.951 109.903 148.703 110.447C148.456 110.979 148.221 111.493 147.998 111.987C147.788 112.482 147.621 112.909 147.497 113.268C147.448 113.404 147.373 113.657 147.274 114.028C147.175 114.387 147.064 114.814 146.94 115.309C146.829 115.803 146.705 116.341 146.569 116.923C146.433 117.492 146.303 118.055 146.18 118.611C146.068 119.156 145.963 119.669 145.864 120.151C145.778 120.621 145.716 121.005 145.679 121.302C146.05 120.708 146.489 120.096 146.996 119.465C147.516 118.822 148.072 118.197 148.666 117.591C149.26 116.985 149.878 116.416 150.521 115.884C151.165 115.34 151.802 114.863 152.433 114.455C153.076 114.047 153.694 113.725 154.288 113.49C154.882 113.255 155.426 113.138 155.921 113.138C156.106 113.138 156.298 113.138 156.496 113.138C156.694 113.138 156.88 113.156 157.053 113.193C157.226 113.23 157.381 113.292 157.517 113.379C157.665 113.453 157.789 113.564 157.888 113.713C158.036 113.936 158.172 114.195 158.296 114.492C158.42 114.777 158.525 115.074 158.611 115.383C158.698 115.68 158.76 115.977 158.797 116.273C158.846 116.558 158.871 116.818 158.871 117.053Z" fill="#F47806"/>
</svg>
