<svg id="Capa_1" enable-background="new 0 0 512 512" height="512" viewBox="0 0 512 512" width="512" xmlns="http://www.w3.org/2000/svg"><g><path d="m129.443 298.672h43.309v59.883h-43.309z" fill="#678d98"/><path d="m129.443 298.672h21.557v59.883h-21.557z" fill="#537983"/><path d="m171.753 256.209h-159.027l-5.226 1.089v30.486c0 6.013 4.875 10.888 10.888 10.888h153.365z" fill="#7ca1b1"/><g><path d="m50 287.784v-30.486l5.226-1.089h-42.5l-5.226 1.089v30.486c0 6.013 4.875 10.888 10.888 10.888h42.5c-6.013 0-10.888-4.875-10.888-10.888z" fill="#678d98"/></g><path d="m171.753 250.938c0-6.013 4.875-10.888 10.888-10.888h154.759v-154.779c0-6.013-4.875-10.888-10.888-10.888h-308.124c-6.013 0-10.888 4.875-10.888 10.888v172.027h164.253z" fill="#dff6fd"/><g><path d="m60.888 74.383h-42.5c-6.013 0-10.888 4.875-10.888 10.888v172.027h42.5v-172.027c0-6.013 4.875-10.888 10.888-10.888z" fill="#c8effe"/></g><path d="m171.753 358.555h-90.216c-9.02 0-16.332 7.312-16.332 16.332v13.065c0 3.007 2.437 5.444 5.444 5.444h101.103v-34.841z" fill="#7ca1b1"/><g><path d="m107.51 387.952v-13.065c0-9.02 7.312-16.332 16.332-16.332h-42.305c-9.02 0-16.332 7.312-16.332 16.332v13.065c0 3.007 2.437 5.444 5.444 5.444h42.305c-3.006 0-5.444-2.438-5.444-5.444z" fill="#678d98"/></g><g><path d="m471.32 437.703h-299.567v-186.765c0-6.013 4.875-10.888 10.888-10.888h277.792c6.013 0 10.888 4.875 10.888 10.888v186.765z" fill="#a8d3d8"/></g><path d="m202.238 410.484c-1.804 0-3.266-1.462-3.266-3.266v-136.682c0-1.804 1.462-3.266 3.266-3.266h10.194v-16.331c0-6.013 4.875-10.888 10.888-10.888h-40.68c-6.013 0-10.888 4.875-10.888 10.888v186.765h40.68v-27.22z" fill="#8ebac5"/><g><path d="m198.972 407.217v-136.681c0-1.804 1.462-3.266 3.266-3.266h238.597c1.804 0 3.266 1.462 3.266 3.266v136.681c0 1.804-1.462 3.266-3.266 3.266h-238.597c-1.804.001-3.266-1.462-3.266-3.266z" fill="#fff"/></g><g><path d="m230 407.217v-136.681c0-1.804 1.462-3.266 3.266-3.266h-31.028c-1.804 0-3.266 1.462-3.266 3.266v136.681c0 1.804 1.462 3.266 3.266 3.266h31.028c-1.804.001-3.266-1.462-3.266-3.266z" fill="#eef5f6"/></g><g><path d="m499.056 437.703h-355.039c-3.007 0-5.444 2.437-5.444 5.444v24.113c0 3.007 2.437 5.444 5.444 5.444h355.039c3.007 0 5.444-2.437 5.444-5.444v-24.113c0-3.006-2.437-5.444-5.444-5.444z" fill="#7ca1b1"/></g><g><path d="m181 467.26v-24.113c0-3.007 2.437-5.444 5.444-5.444h-42.427c-3.007 0-5.444 2.437-5.444 5.444v24.113c0 3.007 2.437 5.444 5.444 5.444h42.427c-3.007 0-5.444-2.437-5.444-5.444z" fill="#678d98"/></g><g><path d="m366.862 437.703h-90.651l12.694 35.001h65.583z" fill="#05e39c"/></g><g><path d="m276.211 437.703 12.694 35.001h25.139l-12.694-35.001z" fill="#0ed290"/></g><g><g><circle cx="235.628" cy="331.175" fill="#01d0fb" r="13.715"/></g><g><circle cx="281.955" cy="376.13" fill="#fd5426" r="13.715"/></g><g><circle cx="365.615" cy="311.671" fill="#05e39c" r="13.715"/></g><g><circle cx="407.445" cy="354.872" fill="#fed402" r="13.715"/></g></g><g><g><g><g><path d="m96.894 208.845h-33.993v-42.838c0-1.657 1.343-3 3-3h27.994c1.657 0 3 1.343 3 3v42.838z" fill="#fd5426"/></g></g></g><g><path d="m82.006 163.007h-16.105c-1.657 0-3 1.343-3 3v42.838h16.106v-42.838c-.001-1.656 1.342-3 2.999-3z" fill="#ef4424"/></g><g><g><g><path d="m158.596 208.845h-33.994v-81.312c0-1.657 1.343-3 3-3h27.994c1.657 0 3 1.343 3 3z" fill="#fed402"/></g></g></g><g><path d="m144.006 124.533h-16.404c-1.657 0-3 1.343-3 3v81.312h16.404v-81.312c0-1.657 1.343-3 3-3z" fill="#fac600"/></g><g><g><g><path d="m220.298 208.845h-33.994v-166.549c0-1.657 1.343-3 3-3h27.994c1.657 0 3 1.343 3 3z" fill="#05e39c"/></g></g></g><g><path d="m206.006 39.296h-16.702c-1.657 0-3 1.343-3 3v166.55h16.702v-166.55c0-1.657 1.343-3 3-3z" fill="#0ed290"/></g><g><g><g><path d="m279 208.845h-30.994v-96.868c0-1.657 1.343-3 3-3h27.994c1.657 0 3 1.343 3 3v93.868c0 1.657-1.343 3-3 3z" fill="#01d0fb"/></g></g></g><g><path d="m268.006 108.978h-17c-1.657 0-3 1.343-3 3v96.868h17v-96.868c0-1.657 1.343-3 3-3z" fill="#01c0fa"/></g></g><g><path d="m440.835 259.77h-238.597c-5.937 0-10.767 4.83-10.767 10.767v136.681c0 5.937 4.83 10.766 10.767 10.766h238.597c5.937 0 10.767-4.83 10.767-10.766v-30.218c0-4.142-3.357-7.5-7.5-7.5s-7.5 3.358-7.5 7.5v25.983h-230.13v-128.213h230.13v67.23c0 4.142 3.357 7.5 7.5 7.5s7.5-3.358 7.5-7.5v-71.464c0-5.936-4.831-10.766-10.767-10.766z"/><circle cx="224.5" cy="290.345" r="7.5"/><circle cx="246.5" cy="290.345" r="7.5"/><circle cx="268.5" cy="290.345" r="7.5"/><path d="m499.056 430.203h-20.236v-179.265c0-10.139-8.249-18.388-18.388-18.388h-115.532v-78.55c0-4.142-3.357-7.5-7.5-7.5s-7.5 3.358-7.5 7.5v78.55h-147.26c-9.754 0-17.737 7.64-18.33 17.248h-149.31v-164.527c0-1.868 1.52-3.388 3.388-3.388h160.417v119.462h-12.708v-73.813c0-5.79-4.71-10.5-10.5-10.5h-27.994c-5.79 0-10.5 4.71-10.5 10.5v73.813h-12.708v-35.338c0-5.79-4.71-10.5-10.5-10.5h-27.995c-5.79 0-10.5 4.71-10.5 10.5v35.338h-13.4c-4.142 0-7.5 3.358-7.5 7.5s3.358 7.5 7.5 7.5h237c5.79 0 10.5-4.71 10.5-10.5v-93.868c0-5.79-4.71-10.5-10.5-10.5h-27.994c-5.79 0-10.5 4.71-10.5 10.5v89.368h-12.708v-119.462h98.715c1.868 0 3.388 1.52 3.388 3.388v33.729c0 4.142 3.357 7.5 7.5 7.5s7.5-3.358 7.5-7.5v-33.729c0-10.139-8.249-18.388-18.388-18.388h-98.715v-24.588c0-5.79-4.71-10.5-10.5-10.5h-27.994c-5.79 0-10.5 4.71-10.5 10.5v24.588h-160.416c-10.139 0-18.388 8.249-18.388 18.388v202.513c0 10.139 8.249 18.388 18.388 18.388h50.612c4.142 0 7.5-3.358 7.5-7.5s-3.358-7.5-7.5-7.5h-50.612c-1.868 0-3.388-1.52-3.388-3.388v-22.986h149.252v26.374h-60.252c-4.142 0-7.5 3.358-7.5 7.5s3.358 7.5 7.5 7.5h17.943v44.883h-40.406c-13.141 0-23.832 10.691-23.832 23.832v13.065c0 7.137 5.807 12.944 12.944 12.944h93.603v29.307h-20.235c-7.137 0-12.944 5.807-12.944 12.944v24.113c0 7.138 5.807 12.944 12.944 12.944h355.039c7.138 0 12.944-5.807 12.944-12.944v-24.113c0-7.137-5.807-12.944-12.944-12.944zm-409.661-228.858h-18.995v-30.838h18.994v30.838zm61.701 0h-18.994v-69.313h18.994zm104.41-84.867h18.994v84.868h-18.994zm-61.702-69.683h18.994v154.55h-18.994zm-14.552 204.143c0-1.868 1.52-3.388 3.388-3.388h277.792c1.868 0 3.388 1.52 3.388 3.388v179.265h-284.568zm-42.309 55.234h27.309v44.883h-27.309zm-64.237 79.724v-11.009c0-4.87 3.962-8.832 8.832-8.832h82.715v19.841zm73.367 79.309v-20.001h124.88l7.254 20.001zm203.111 0h-55.021l-7.254-20.001h69.346zm147.816 0h-131.906l7.071-20.001h124.835z"/><path d="m407.445 376.087c11.698 0 21.215-9.517 21.215-21.215s-9.517-21.215-21.215-21.215c-2.988 0-5.829.628-8.41 1.747l-14.246-14.714c1.295-2.742 2.042-5.792 2.042-9.02 0-11.698-9.517-21.215-21.215-21.215s-21.215 9.517-21.215 21.215c0 2.145.326 4.215.921 6.168l-52.249 40.257c-3.238-2.003-7.038-3.181-11.117-3.181-3.232 0-6.286.748-9.031 2.046l-17.872-17.286c1.145-2.605 1.791-5.477 1.791-8.5 0-11.698-9.517-21.215-21.215-21.215s-21.215 9.517-21.215 21.215 9.517 21.215 21.215 21.215c3.192 0 6.21-.729 8.929-1.997l17.926 17.338c-1.117 2.578-1.742 5.416-1.742 8.4 0 11.698 9.517 21.215 21.215 21.215s21.215-9.517 21.215-21.215c0-2.145-.326-4.215-.921-6.169l52.249-40.257c3.238 2.003 7.038 3.181 11.118 3.181 2.988 0 5.829-.628 8.41-1.747l14.247 14.714c-1.295 2.742-2.042 5.792-2.042 9.02-.003 11.698 9.514 21.215 21.212 21.215zm0-27.429c3.427 0 6.215 2.788 6.215 6.215s-2.788 6.215-6.215 6.215-6.215-2.788-6.215-6.215 2.789-6.215 6.215-6.215zm-171.817-11.268c-3.427 0-6.215-2.788-6.215-6.215s2.788-6.215 6.215-6.215 6.215 2.788 6.215 6.215-2.788 6.215-6.215 6.215zm46.327 44.955c-3.427 0-6.215-2.788-6.215-6.215s2.788-6.215 6.215-6.215 6.215 2.788 6.215 6.215-2.788 6.215-6.215 6.215zm83.66-64.459c-3.427 0-6.215-2.788-6.215-6.215s2.788-6.215 6.215-6.215 6.215 2.788 6.215 6.215-2.788 6.215-6.215 6.215z"/><path d="m44 112.345h37c4.142 0 7.5-3.358 7.5-7.5s-3.358-7.5-7.5-7.5h-37c-4.142 0-7.5 3.358-7.5 7.5s3.358 7.5 7.5 7.5z"/><path d="m44 135.345h37c4.142 0 7.5-3.358 7.5-7.5s-3.358-7.5-7.5-7.5h-37c-4.142 0-7.5 3.358-7.5 7.5s3.358 7.5 7.5 7.5z"/></g></g></svg>